<mxfile host="app.diagrams.net" agent="Mozilla/5.0 (Windows NT 10.0; Win64; x64) AppleWebKit/537.36 (KHTML, like Gecko) Chrome/131.0.0.0 Safari/537.36" version="26.0.6">
  <diagram name="Page-1" id="SZAIdNu5_d2Mf-W-9mkS">
    <mxGraphModel dx="1050" dy="557" grid="1" gridSize="10" guides="1" tooltips="1" connect="1" arrows="1" fold="1" page="1" pageScale="1" pageWidth="827" pageHeight="1169" math="0" shadow="0">
      <root>
        <mxCell id="0" />
        <mxCell id="1" parent="0" />
        <mxCell id="ifjugQ-kdcExcUm5cvUk-5" value="" style="edgeStyle=orthogonalEdgeStyle;rounded=0;orthogonalLoop=1;jettySize=auto;html=1;" edge="1" parent="1" source="ifjugQ-kdcExcUm5cvUk-1" target="ifjugQ-kdcExcUm5cvUk-2">
          <mxGeometry relative="1" as="geometry" />
        </mxCell>
        <mxCell id="ifjugQ-kdcExcUm5cvUk-1" value="Start" style="rounded=1;whiteSpace=wrap;html=1;" vertex="1" parent="1">
          <mxGeometry x="390" y="60" width="120" height="40" as="geometry" />
        </mxCell>
        <mxCell id="ifjugQ-kdcExcUm5cvUk-6" value="" style="edgeStyle=orthogonalEdgeStyle;rounded=0;orthogonalLoop=1;jettySize=auto;html=1;" edge="1" parent="1" source="ifjugQ-kdcExcUm5cvUk-2" target="ifjugQ-kdcExcUm5cvUk-3">
          <mxGeometry relative="1" as="geometry" />
        </mxCell>
        <mxCell id="ifjugQ-kdcExcUm5cvUk-2" value="Authentication&lt;div&gt;And Authorization&lt;/div&gt;" style="rhombus;whiteSpace=wrap;html=1;rounded=1;" vertex="1" parent="1">
          <mxGeometry x="380" y="160" width="140" height="80" as="geometry" />
        </mxCell>
        <mxCell id="ifjugQ-kdcExcUm5cvUk-7" value="" style="edgeStyle=orthogonalEdgeStyle;rounded=0;orthogonalLoop=1;jettySize=auto;html=1;" edge="1" parent="1" source="ifjugQ-kdcExcUm5cvUk-3" target="ifjugQ-kdcExcUm5cvUk-4">
          <mxGeometry relative="1" as="geometry" />
        </mxCell>
        <mxCell id="ifjugQ-kdcExcUm5cvUk-3" value="Create EVoucher" style="rounded=0;whiteSpace=wrap;html=1;" vertex="1" parent="1">
          <mxGeometry x="390" y="300" width="120" height="60" as="geometry" />
        </mxCell>
        <mxCell id="ifjugQ-kdcExcUm5cvUk-4" value="Generate Promotion Codes" style="whiteSpace=wrap;html=1;rounded=0;" vertex="1" parent="1">
          <mxGeometry x="390" y="440" width="120" height="60" as="geometry" />
        </mxCell>
      </root>
    </mxGraphModel>
  </diagram>
</mxfile>
